<svg width="16" height="14" viewBox="0 0 16 14" fill="none" xmlns="http://www.w3.org/2000/svg">
<path d="M8.01172 7.66406L2.69922 12.9766C2.33203 13.3437 1.73828 13.3437 1.375 12.9766L0.492187 12.0937C0.125 11.7266 0.125 11.1328 0.492187 10.7695L4.25781 7.00391L0.492187 3.23828C0.125 2.87109 0.125 2.27734 0.492187 1.91406L1.37109 1.02344C1.73828 0.65625 2.33203 0.65625 2.69531 1.02344L8.00781 6.33594C8.37891 6.70312 8.37891 7.29688 8.01172 7.66406ZM15.5117 6.33594L10.1992 1.02344C9.83203 0.65625 9.23828 0.65625 8.875 1.02344L7.99219 1.90625C7.625 2.27344 7.625 2.86719 7.99219 3.23047L11.7578 6.99609L7.99219 10.7617C7.625 11.1289 7.625 11.7227 7.99219 12.0859L8.875 12.9687C9.24219 13.3359 9.83594 13.3359 10.1992 12.9687L15.5117 7.65625C15.8789 7.29687 15.8789 6.70312 15.5117 6.33594Z" fill="white"/>
</svg>
